{"title":"Dorothy.Mills.2008.DVDRIP-ZEKTORM","uid":4703161,"size":748580462,"categoryP":"video","categoryS":"movies","magnet":"?xt=urn:btih:1b95559134e4b0303d22ef1fbe18d4a973ef6817&amp;dn=Dorothy.Mills.2008.DVDRIP-ZEKTORM&amp;tr=udp%3A%2F%2Ftracker.openbittorrent.com%3A80&amp;tr=udp%3A%2F%2Fopen.demonii.com%3A1337&amp;tr=udp%3A%2F%2Ftracker.coppersurfer.tk%3A6969&amp;tr=udp%3A%2F%2Fexodus.desync.com%3A6969","seeders":1,"leechers":0,"uploader":"blowley","files":4,"time":1233781529,"description":"Title                            : Dorothy Mills\nYear                             : 2008\nGenre                            : Mystery | Thriller\niMDB Rate                        : User Rating: 6.2/10   133 votes \niMDB URL                         : http://www.imdb.com/title/tt1034306/\n\nComplete name                    : Dorothy.Mills.2008.DVDRIP-ZEKTORM.mp4\nFormat                           : MPEG-4\nFormat profile                   : Base Media\nCodec ID                         : isom\nFile size                        : 700 MiB\nDuration                         : 1h 42mn\nOverall bit rate                 : 958 Kbps\nSubtitles                        : English, Spanish (Format: VobSub)\nSource                           : DVD NTSC\nEncoded date                     : UTC 2009-01-28 06:39:20\n\nVideo\nFormat                           : AVC\nFormat/Info                      : Advanced Video Codec\nFormat profile                   : &lt;a class=&quot;__cf_email__&quot; href=&quot;/cdn-cgi/l/email-protection&quot; data-cfemail=&quot;652d0c020d2529514b54&quot;&gt;[email&amp;#160;protected]&lt;/a&gt;&lt;script cf-hash='f9e31' type=&quot;text/javascript&quot;&gt;\n/* &lt;![CDATA[ */!function(){try{var t=&quot;currentScript&quot;in document?document.currentScript:function(){for(var t=document.getElementsByTagName(&quot;script&quot;),e=t.length;e--;)if(t[e].getAttribute(&quot;cf-hash&quot;))return t[e]}();if(t&amp;&amp;t.previousSibling){var e,r,n,i,c=t.previousSibling,a=c.getAttribute(&quot;data-cfemail&quot;);if(a){for(e=&quot;&quot;,r=parseInt(a.substr(0,2),16),n=2;a.length-n;n+=2)i=parseInt(a.substr(n,2),16)^r,e+=String.fromCharCode(i);e=document.createTextNode(e),c.parentNode.replaceChild(e,c)}}}catch(u){}}();/* ]]&gt; */&lt;/script&gt;\nFormat settings, CABAC           : Yes\nFormat settings, ReFrames        : 10 frames\nCodec ID                         : avc1\nCodec ID/Info                    : Advanced Video Coding\nDuration                         : 1h 42mn\nBit rate mode                    : Variable\nBit rate                         : 871 Kbps\nMaximum bit rate                 : 4979 Kbps\nWidth                            : 704 pixels\nHeight                           : 368 pixels\nDisplay aspect ratio             : 2.35\nFrame rate mode                  : Constant\nFrame rate                       : 23.976 fps\nResolution                       : 24 bits\nColorimetry                      : 4:2:0\nScan type                        : Progressive\nBits/(Pixel*Frame)               : 0.140\nStream size                      : 637 MiB (91%)\nTitle                            : Video\nWriting library                  : x264 core 60 r900 a9af942\n\nAudio\nFormat                           : AAC\nFormat/Info                      : Advanced Audio Codec\nFormat version                   : Version 4\nFormat profile                   : LC\nFormat settings, SBR             : Yes\nFormat settings, PS              : No\nCodec ID                         : 40\nDuration                         : 1h 42mn\nBit rate mode                    : Variable\nBit rate                         : 83.8 Kbps\nMaximum bit rate                 : 107 Kbps\nChannel(s)                       : 2 channels\nChannel positions                : L R\nSampling rate                    : 48.0 KHz\nResolution                       : 16 bits\nStream size                      : 61.3 MiB (9%)\nTitle                            : English\nLanguage                         : English\n\nNotes                            : Convert to DVD with Nero\n","torrent":{"xt":"urn:btih:1b95559134e4b0303d22ef1fbe18d4a973ef6817","amp;dn":"Dorothy.Mills.2008.DVDRIP-ZEKTORM","amp;tr":["udp%3A%2F%2Ftracker.openbittorrent.com%3A80","udp%3A%2F%2Fopen.demonii.com%3A1337","udp%3A%2F%2Ftracker.coppersurfer.tk%3A6969","udp%3A%2F%2Fexodus.desync.com%3A6969"],"infoHash":"1b95559134e4b0303d22ef1fbe18d4a973ef6817","infoHashBuffer":{"type":"Buffer","data":[27,149,85,145,52,228,176,48,61,34,239,31,190,24,212,169,115,239,104,23]},"announce":[],"urlList":[]}}